# xmcd
# 
# Track frame offsets:
#     150
#     12105
#     24696
#     35850
#     48069
#     58902
#     70995
#     84480
#     95787
#     106959
#     118348
#     128638
#     142091
#     152610
#     165011
#     179237
#     190501
#     203020
#     216817
#     229856
#     240726
#     252250
#     262484
#     275099
#     286785
# 
# Disc length: 4005
# 
# Revision: 2
# Processed by: cddbd v1.5.2PL0 Copyright (c) Steve Scherf et al.
# Submitted via: fre:ac v1.0.17
# 
DISCID=760fa319
DTITLE=Various Artist - Country's Greatest Hits [CD 2)
DYEAR=2007
DGENRE=Country
TTITLE0=Hank Williams - Take These Chains From My Heart
TTITLE1=Johnny Cash - Folsom Prison Blues
TTITLE2=Patsy Cline - Hidin' Out
TTITLE3=George Jones - Just One More
TTITLE4=Jim Reeves - Then I'll Stop Loving You
TTITLE5=Marty Robbins - I'll Go On Alone
TTITLE6=Webb Pierce - Wondering
TTITLE7=Carl Smith - Hey Joe!
TTITLE8=Hank Snow - (Now And Again) There's A Fool Such As I
TTITLE9=Lefty Frizzell - I Love You Mostly
TTITLE10=Kitty Wells - Make Up Your Mind
TTITLE11=Pee Wee King - Tennesse Waltz
TTITLE12=Eddy Arnold - Eddy's Song
TTITLE13=Marty Robbins - I Couldn't Keep From Crying
TTITLE14=Slim Whitman - Indian Love Call
TTITLE15=Jim Reeves - Penny Candy
TTITLE16=Red Foley - Chattanoogie Shoe Shine Boy
TTITLE17=Lefty Frizzell - Run 'Em Off
TTITLE18=Hank Williams - Jambalaya (On The Bayou)
TTITLE19=Webb Pierce - There Stands The Class
TTITLE20=Carl Perkins - Sure To Fall
TTITLE21=Johnny Cash - There You Go
TTITLE22=Tex Ritter - High Noon
TTITLE23=Hank Williams - Kaw-Liga
TTITLE24=Pee Wee King - Slow Poke
EXTD=
EXTT0=
EXTT1=
EXTT2=
EXTT3=
EXTT4=
EXTT5=
EXTT6=
EXTT7=
EXTT8=
EXTT9=
EXTT10=
EXTT11=
EXTT12=
EXTT13=
EXTT14=
EXTT15=
EXTT16=
EXTT17=
EXTT18=
EXTT19=
EXTT20=
EXTT21=
EXTT22=
EXTT23=
EXTT24=
PLAYORDER=
